<?xml version="1.0" encoding="UTF-8" standalone="no"?>
<!-- Generator: Adobe Illustrator 17.0.2, SVG Export Plug-In . SVG Version: 6.00 Build 0)  -->

<svg
   xmlns:dc="http://purl.org/dc/elements/1.1/"
   xmlns:cc="http://creativecommons.org/ns#"
   xmlns:rdf="http://www.w3.org/1999/02/22-rdf-syntax-ns#"
   xmlns:svg="http://www.w3.org/2000/svg"
   xmlns="http://www.w3.org/2000/svg"
   xmlns:sodipodi="http://sodipodi.sourceforge.net/DTD/sodipodi-0.dtd"
   xmlns:inkscape="http://www.inkscape.org/namespaces/inkscape"
   version="1.1"
   id="Layer_1"
   x="0px"
   y="0px"
   width="524.819px"
   height="144.277px"
   viewBox="0 0 524.819 144.277"
   enable-background="new 0 0 524.819 144.277"
   xml:space="preserve"
   sodipodi:docname="tcaml-logo.svg"
   inkscape:version="0.92.4 (5da689c313, 2019-01-14)"><metadata
   id="metadata4082"><rdf:RDF><cc:Work
       rdf:about=""><dc:format>image/svg+xml</dc:format><dc:type
         rdf:resource="http://purl.org/dc/dcmitype/StillImage" /></cc:Work></rdf:RDF></metadata><defs
   id="defs4080" /><sodipodi:namedview
   pagecolor="#ffffff"
   bordercolor="#666666"
   borderopacity="1"
   objecttolerance="10"
   gridtolerance="10"
   guidetolerance="10"
   inkscape:pageopacity="0"
   inkscape:pageshadow="2"
   inkscape:window-width="3840"
   inkscape:window-height="2036"
   id="namedview4078"
   showgrid="false"
   inkscape:zoom="2.4952638"
   inkscape:cx="102.22725"
   inkscape:cy="-24.085297"
   inkscape:window-x="-12"
   inkscape:window-y="-12"
   inkscape:window-maximized="1"
   inkscape:current-layer="g4075" />
<g
   id="g4075">
	<g
   id="g4063">
		<path
   fill="#FFFFFF"
   d="M86.085,127c-0.209-1.424,0.197-2.841-0.232-4.177c-0.367-1.166-1.209-1.273-1.762-2.221    c-1.457-2.487-2.963-5.709-3.102-8.754c-0.127-2.735-1.133-5.206-1.27-7.917c-0.066-1.308,0.088-2.657,0.041-3.952    c-0.025-0.63-0.061-1.176-0.186-1.86c-0.031-0.169-0.143-0.865-0.195-1.144l0.34-0.848c-0.15-0.291,2.902-0.194,3.812-0.188    c1.545,0.019,2.998,0.099,4.539,0.173c3.148,0.156,6.016,0.117,9.082-0.356c6.832-1.055,9.973-3.845,11.58-5.005    c6.273-4.523,9.146-11.918,9.146-11.918c1.035-2.31,1.031-6.431,3.25-8.276c2.615-2.179,7.006-2.022,10.008-3.359    c1.756-0.777,3.023-1.205,4.818-0.833c1.332,0.278,3.73,1.821,4.281-0.345c-0.445-0.287-0.619-0.812-0.857-1.103    c2.475-0.245,0.047-5.986-0.932-7.133c-1.512-1.77-4.035-2.581-6.719-3.293c-3.188-0.845-6.08-1.82-9.082-1.231    c-5.242,1.026-4.85-1.974-7.939-1.974c-3.707,0-10.303,0.182-11.443,3.786c-0.531,1.683-1.078,1.753-1.998,3.044    c-0.787,1.106,0.137,2.082-0.258,3.344c-0.408,1.297-1.007,5.865-1.632,7.459c-1.057,2.697-2.317,6.065-4.643,6.065    c-3.261,0.39-5.824,0.515-8.469-0.445c-1.592-0.578-4.26-1.483-5.58-2.039c-6.088-2.563-7.088-5.367-7.088-5.367    c-0.653-1.08-2.374-2.821-3.018-5.093c-0.708-2.502-1.903-4.589-2.387-5.891c-0.501-1.349-1.699-3.51-2.64-5.846    c-1.205-2.991-2.9-5.223-4.141-6.331c-1.896-1.69-3.646-4.306-7.495-3.546c-0.688,0.136-3.188,0.249-5.104,1.856    c-1.299,1.09-1.709,3.339-2.912,5.236c-0.695,1.096-1.917,4.24-3.038,6.863c-0.777,1.818-1.139,3.181-1.979,3.85    c-0.657,0.524-1.471,1.201-2.456,0.832c-0.611-0.229-1.264-0.617-1.923-1.132c-0.89-0.695-2.913-4.138-4.156-6.681    c-1.077-2.205-3.376-5.502-4.706-7.287c-1.914-2.568-3.036-3.219-5.864-3.219c-6.067,0-6.526,3.397-9.195,8.337    c-1.172,2.17-1.599,5.614-3.952,8.313c-1.345,1.544-5.637,7.893-8.621,8.972v-0.031L0,66.366v45.257l0.008,0.063v-0.284    c0.193-0.59,0.398-1.156,0.631-1.662c1.154-2.459,3.832-4.741,5.32-7.266c0.809-1.376,1.732-2.724,2.268-4.168    c0.461-1.244,0.688-3.099,1.354-4.178c0.816-1.323,2.094-1.773,3.406-1.987c2.055-0.339,3.801,2.954,6.43,4.166    c1.121,0.515,6.281,2.342,7.83,2.717c2.551,0.61,5.381,1.119,7.971,1.642c1.387,0.28,2.713,0.443,4.141,0.588    c1.281,0.128,6.08,0.287,6.377,0.634c-2.439,1.244-3.869,4.736-4.785,7.207c-0.955,2.575-1.621,5.441-2.775,7.96    c-1.279,2.783-3.961,3.941-3.641,7.184c0.123,1.294,0.359,2.651,0.143,4.075c-0.23,1.499-0.836,2.669-1.277,4.137    c-0.566,1.915-1.24,8.1-2.113,9.918l5.337-0.669l0.009-0.003c0.583-1.386,1.12-7.237,1.309-7.794    c0.998-2.934,2.322-5.348,4.359-7.617c1.986-2.211,1.883-5.061,3.043-7.637c1.256-2.8,2.945-5.039,4.539-7.671    c2.881-4.759,4.781-10.767,10.906-11.989c0.654-0.135,4.404,2.569,6.068,4.177c1.906,1.832,3.988,3.954,5.24,6.48    c2.424,4.896,4.48,11.988,5.258,15.899c0.447,2.246,0.803,2.38,2.322,4.159c0.699,0.815,2.094,3.362,2.553,4.34    c0.482,1.044,1.215,3.42,1.799,4.633c0.344,0.722,1.236,2.94,1.885,4.856l4.987-0.156c0.018,0.042,0.109-0.012,0.13,0.027    c0.002,0,0.005-0.001,0.007-0.002c-0.021-0.038-0.04-0.082-0.058-0.123C88.496,138.292,86.906,132.522,86.085,127z"
   id="path4019" />
		<path
   fill="#484444"
   d="M82.919,97.901l0.023-0.061C82.908,97.686,82.896,97.651,82.919,97.901z"
   id="path4021" />
		<g
   id="g4061">
			<g
   id="g4059">
				
					<linearGradient
   id="SVGID_1_"
   gradientUnits="userSpaceOnUse"
   x1="-675.0754"
   y1="96.4384"
   x2="-675.0754"
   y2="96.6205"
   gradientTransform="matrix(1 0 0 1 758 1.28)">
					<stop
   offset="0"
   style="stop-color:#F29100"
   id="stop4023" />
					<stop
   offset="1"
   style="stop-color:#EC670F"
   id="stop4025" />
				</linearGradient>
				<path
   fill="url(#SVGID_1_)"
   d="M82.919,97.901l0.023-0.061C82.908,97.686,82.896,97.651,82.919,97.901z"
   id="path4028" />
				<g
   id="g4037">
					
						<linearGradient
   id="SVGID_2_"
   gradientUnits="userSpaceOnUse"
   x1="-696.7245"
   y1="97.701"
   x2="-696.7245"
   y2="142.9972"
   gradientTransform="matrix(1 0 0 1 758 1.28)">
						<stop
   offset="0"
   style="stop-color:#F29100"
   id="stop4030" />
						<stop
   offset="1"
   style="stop-color:#EC670F"
   id="stop4032" />
					</linearGradient>
					<path
   fill="url(#SVGID_2_)"
   d="M84.031,138.674c-0.584-1.213-1.316-3.589-1.799-4.633c-0.459-0.978-1.854-3.524-2.553-4.34       c-1.52-1.779-1.875-1.913-2.322-4.159c-0.777-3.911-2.834-11.004-5.258-15.899c-1.252-2.526-3.334-4.648-5.24-6.48       c-1.664-1.607-5.414-4.312-6.068-4.177c-6.125,1.223-8.025,7.23-10.906,11.989c-1.594,2.632-3.283,4.871-4.539,7.671       c-1.16,2.575-1.057,5.426-3.043,7.637c-2.037,2.27-3.361,4.684-4.359,7.617c-0.189,0.557-0.726,6.408-1.309,7.794       c0,0.001-0.001,0.002-0.001,0.003l9.104-0.641c8.482,0.578,6.033,3.829,19.273,3.121l20.906-0.647l0,0       C85.267,141.614,84.375,139.396,84.031,138.674z"
   id="path4035" />
				</g>
				<g
   id="g4048">
					<g
   id="g4046">
						
							<linearGradient
   id="SVGID_3_"
   gradientUnits="userSpaceOnUse"
   x1="-675.2191"
   y1="-1.2802"
   x2="-675.2191"
   y2="142.9646"
   gradientTransform="matrix(1 0 0 1 758 1.28)">
							<stop
   offset="0"
   style="stop-color:#F29100"
   id="stop4039" />
							<stop
   offset="1"
   style="stop-color:#EC670F"
   id="stop4041" />
						</linearGradient>
						<path
   fill="url(#SVGID_3_)"
   d="M144.695,0H20.865C9.347,0,0.01,9.339,0.01,20.857v45.476v0.031        c2.984-1.079,7.276-7.428,8.621-8.972c2.353-2.7,2.78-6.144,3.952-8.313c2.669-4.94,3.128-8.337,9.195-8.337        c2.828,0,3.951,0.652,5.864,3.219c1.331,1.785,3.63,5.083,4.706,7.287c1.242,2.544,3.266,5.986,4.156,6.681        c0.659,0.516,1.312,0.903,1.923,1.132c0.984,0.369,1.798-0.308,2.456-0.832c0.84-0.669,1.202-2.032,1.979-3.85        c1.122-2.623,2.343-5.766,3.038-6.863c1.203-1.896,1.613-4.146,2.912-5.236c1.916-1.607,4.416-1.72,5.104-1.856        c3.849-0.76,5.599,1.856,7.495,3.546c1.241,1.108,2.937,3.34,4.141,6.331c0.941,2.336,2.139,4.497,2.64,5.846        c0.484,1.302,1.679,3.389,2.387,5.891c0.643,2.272,2.364,4.013,3.018,5.093c0,0,1.001,2.804,7.088,5.367        c1.32,0.556,3.988,1.46,5.58,2.039c2.645,0.961,5.207,0.836,8.469,0.445c2.326,0,3.586-3.368,4.643-6.065        c0.625-1.594,1.224-6.162,1.632-7.459c0.395-1.262-0.529-2.238,0.258-3.344c0.92-1.291,1.467-1.361,1.998-3.044        c1.141-3.604,7.736-3.786,11.443-3.786c3.09,0,2.697,3,7.939,1.974c3.002-0.589,5.895,0.387,9.082,1.231        c2.684,0.712,5.207,1.523,6.719,3.293c0.979,1.146,3.406,6.888,0.932,7.133c0.238,0.291,0.412,0.816,0.857,1.103        c-0.551,2.166-2.949,0.623-4.281,0.345c-1.795-0.372-3.062,0.056-4.818,0.833c-3.002,1.337-7.393,1.181-10.008,3.359        c-2.219,1.846-2.215,5.967-3.25,8.276c0,0-2.873,7.394-9.146,11.918c-1.607,1.16-4.748,3.95-11.58,5.005        c-3.066,0.474-5.934,0.513-9.082,0.356c-1.541-0.074-2.994-0.153-4.539-0.173c-0.91-0.007-3.963-0.104-3.812,0.188        l-0.34,0.848c0.053,0.279,0.164,0.976,0.195,1.144c0.125,0.685,0.16,1.231,0.186,1.86c0.047,1.295-0.107,2.645-0.041,3.952        c0.137,2.711,1.143,5.182,1.27,7.917c0.139,3.045,1.645,6.267,3.102,8.754c0.553,0.947,1.395,1.055,1.762,2.221        c0.43,1.336,0.023,2.753,0.232,4.177c0.82,5.521,2.41,11.292,4.896,16.275c0.017,0.041,0.037,0.086,0.058,0.123        c0,0,0,0.001,0.001,0.002c3.07-0.516,6.146-1.62,10.135-2.21c7.314-1.085,17.486-0.526,24.02-1.138        c16.533-1.554,25.506,6.781,40.355,3.365V20.858C165.55,9.339,156.216,0,144.695,0z M82.919,97.901        c-0.023-0.25-0.012-0.215,0.023-0.061L82.919,97.901z"
   id="path4044" />
					</g>
				</g>
				<g
   id="g4057">
					
						<linearGradient
   id="SVGID_4_"
   gradientUnits="userSpaceOnUse"
   x1="-735.129"
   y1="90.8344"
   x2="-735.129"
   y2="141.9687"
   gradientTransform="matrix(1 0 0 1 758 1.28)">
						<stop
   offset="0"
   style="stop-color:#F29100"
   id="stop4050" />
						<stop
   offset="1"
   style="stop-color:#EC670F"
   id="stop4052" />
					</linearGradient>
					<path
   fill="url(#SVGID_4_)"
   d="M38.175,117.053c1.154-2.518,1.82-5.385,2.775-7.96c0.916-2.471,2.346-5.963,4.785-7.207       c-0.297-0.347-5.096-0.506-6.377-0.634c-1.428-0.145-2.754-0.308-4.141-0.588c-2.59-0.523-5.42-1.031-7.971-1.642       c-1.549-0.375-6.709-2.202-7.83-2.717c-2.629-1.212-4.375-4.505-6.43-4.166c-1.312,0.214-2.59,0.664-3.406,1.987       c-0.666,1.079-0.893,2.933-1.354,4.178c-0.535,1.444-1.459,2.792-2.268,4.168c-1.488,2.524-4.166,4.807-5.32,7.266       c-0.232,0.506-0.438,1.072-0.631,1.662v0.284v9.15v16.321v2.358c1.346,0.23,2.754,0.513,4.33,0.934       c11.631,3.104,14.469,3.366,25.877,2.062l1.07-0.142v-0.001c0.873-1.818,1.547-8.003,2.113-9.918       c0.441-1.468,1.047-2.638,1.277-4.137c0.217-1.424-0.02-2.781-0.143-4.075C34.214,120.994,36.896,119.836,38.175,117.053z"
   id="path4055" />
				</g>
			</g>
		</g>
	</g>
	
	<path
   fill="#484444"
   d="M261.898,84.006c0-6.758,1.043-12.784,3.129-18.083c2.086-5.297,4.9-9.781,8.447-13.453   c3.545-3.67,7.676-6.464,12.389-8.385c4.713-1.918,9.699-2.879,14.955-2.879c5.088,0,9.697,1.064,13.828,3.191   c4.129,2.128,7.57,4.611,10.324,7.446l-10.137,11.388c-2.086-1.918-4.193-3.42-6.32-4.505c-2.127-1.083-4.609-1.627-7.445-1.627   c-2.838,0-5.486,0.606-7.947,1.814c-2.461,1.21-4.609,2.941-6.443,5.193c-1.836,2.252-3.275,5.005-4.318,8.259   c-1.043,3.253-1.564,6.926-1.564,11.012c0,8.428,1.795,14.955,5.383,19.585c3.584,4.631,8.383,6.945,14.391,6.945   c3.336,0,6.256-0.667,8.76-2.002c2.502-1.334,4.754-3.086,6.758-5.256l10.137,11.138c-3.422,4.004-7.322,7.008-11.701,9.01   c-4.381,2.003-9.117,3.004-14.205,3.004c-5.256,0-10.219-0.897-14.891-2.69c-4.674-1.793-8.76-4.443-12.264-7.947   c-3.504-3.504-6.258-7.862-8.26-13.077C262.9,96.876,261.898,90.848,261.898,84.006z"
   id="path4067" />
	<path
   fill="#484444"
   d="M332.353,107.032c0-6.508,2.752-11.596,8.258-15.267c5.508-3.67,14.393-6.132,26.656-7.383   c-0.168-2.754-1.002-4.943-2.502-6.57c-1.502-1.627-3.924-2.44-7.26-2.44c-2.67,0-5.34,0.501-8.008,1.502   c-2.672,1.001-5.508,2.378-8.51,4.13l-6.508-12.139c4.004-2.419,8.197-4.38,12.576-5.882c4.381-1.501,9.029-2.252,13.953-2.252   c8.01,0,14.121,2.274,18.334,6.82c4.211,4.548,6.32,11.618,6.32,21.212v35.54h-15.016l-1.377-6.382h-0.375   c-2.672,2.336-5.486,4.235-8.447,5.693c-2.963,1.459-6.195,2.19-9.699,2.19c-2.836,0-5.381-0.481-7.633-1.439   c-2.252-0.958-4.172-2.294-5.756-4.005c-1.586-1.709-2.816-3.691-3.693-5.944C332.791,112.163,332.353,109.703,332.353,107.032z    M349.873,105.655c0,2.003,0.645,3.484,1.939,4.442c1.293,0.961,3.023,1.439,5.193,1.439c2.168,0,4.004-0.457,5.506-1.376   c1.502-0.918,3.086-2.21,4.756-3.88V95.392c-6.592,0.919-11.137,2.253-13.641,4.005   C351.125,101.151,349.873,103.236,349.873,105.655z"
   id="path4069" />
	<path
   fill="#484444"
   d="M396.424,62.231h15.018l1.252,8.009h0.5c2.586-2.585,5.338-4.818,8.26-6.695   c2.92-1.877,6.424-2.816,10.512-2.816c4.422,0,7.988,0.897,10.699,2.69c2.711,1.795,4.859,4.36,6.445,7.696   c2.754-2.835,5.65-5.275,8.697-7.321c3.045-2.043,6.652-3.066,10.826-3.066c6.672,0,11.574,2.233,14.703,6.695   c3.129,4.464,4.693,10.574,4.693,18.333V124.3h-18.396V88.134c0-4.505-0.606-7.591-1.814-9.261   c-1.211-1.668-3.15-2.503-5.818-2.503c-3.088,0-6.633,2.003-10.639,6.007V124.3h-18.394V88.134c0-4.505-0.607-7.591-1.815-9.261   c-1.211-1.668-3.15-2.503-5.82-2.503c-3.172,0-6.676,2.003-10.512,6.007V124.3h-18.397L396.424,62.231L396.424,62.231z"
   id="path4071" />
	<path
   fill="#484444"
   d="M498.666,36.577h18.397v69.203c0,1.921,0.353,3.254,1.062,4.005s1.439,1.126,2.191,1.126   c0.416,0,0.769,0,1.062,0c0.291,0,0.689-0.082,1.189-0.25l2.252,13.641c-1,0.416-2.273,0.771-3.816,1.063   c-1.545,0.292-3.359,0.439-5.443,0.439c-3.172,0-5.842-0.501-8.01-1.502c-2.17-1.001-3.9-2.397-5.193-4.192   c-1.295-1.793-2.232-3.961-2.816-6.507c-0.584-2.544-0.875-5.401-0.875-8.572L498.666,36.577L498.666,36.577z"
   id="path4073" />
<g
   aria-label="ã¦"
   style="font-style:normal;font-weight:normal;font-size:41.79903793px;line-height:1.25;font-family:sans-serif;letter-spacing:0px;word-spacing:0px;fill:#484444;fill-opacity:1;stroke:none;stroke-width:1.044976"
   id="text4105"><path
     d="m 174.06213,47.579548 q 3.00953,-0.100318 5.91875,-0.200636 3.00953,-0.200635 4.41398,-0.300953 3.51111,-0.300953 8.02541,-0.702224 4.61461,-0.401271 10.03177,-0.802541 5.51747,-0.501589 11.73717,-1.003177 6.2197,-0.501589 13.14162,-1.103495 5.01588,-0.401271 10.33272,-0.702224 5.41716,-0.401271 10.33272,-0.702224 4.91557,-0.300953 8.52701,-0.40127 l 0.10032,15.64956 q -2.60826,0 -6.11938,0.100318 -3.41081,0.100317 -6.92192,0.300953 -3.41081,0.200635 -6.2197,0.802541 -4.01271,0.90286 -7.72446,3.410802 -3.61144,2.507942 -6.42034,6.119379 -2.80889,3.51112 -4.41398,7.824781 -1.60508,4.213343 -1.60508,8.727639 0,4.413979 1.50477,7.824781 1.60508,3.410801 4.41398,5.918744 2.90921,2.407628 6.8216,4.113028 3.91239,1.60508 8.527,2.50794 4.71493,0.90286 9.93145,1.20381 l -5.7181,16.85337 q -6.72129,-0.50158 -12.94099,-2.3073 -6.11938,-1.7054 -11.3359,-4.61462 -5.21652,-3.00953 -9.12891,-7.12255 -3.81207,-4.21335 -6.01906,-9.429866 -2.10667,-5.316838 -2.10667,-11.73717 0,-6.921921 2.00635,-12.64003 2.10668,-5.718109 5.01589,-9.931452 3.00953,-4.313661 5.71811,-6.721286 -2.60826,0.300953 -6.11938,0.702224 -3.51112,0.401271 -7.62415,0.90286 -4.11302,0.501588 -8.42668,1.103494 -4.21335,0.601906 -8.42669,1.404448 -4.11303,0.702224 -7.72446,1.504765 z"
     style="font-style:normal;font-variant:normal;font-weight:900;font-stretch:normal;font-size:100.31769562px;font-family:'Noto Sans JP';-inkscape-font-specification:'Noto Sans JP Heavy';fill:#484444;fill-opacity:1;stroke-width:1.044976"
     id="path849" /></g>
</g>
<g
   style="fill:none"
   id="g4101"
   transform="matrix(0.2567594,0,0,0.2567594,102.59216,4.4098122)"><g
     id="g4088"
     transform="translate(39.177228,1.1003537)"><circle
       id="circle4084"
       style="fill:none;stroke:#000000;stroke-width:12;stroke-linejoin:round;stroke-opacity:1"
       r="74"
       cy="80"
       cx="80" /><path
       id="path4086"
       style="fill:none;stroke:#000000;stroke-width:12;stroke-linecap:round;stroke-linejoin:round;stroke-opacity:1"
       d="m 80,30 v 50 l 40,32"
       inkscape:connector-curvature="0" /></g><path
     style="fill:#ffffff;fill-opacity:1;stroke-width:0.14168979"
     d="m 130.1864,45.496407 c -6.76761,-1.121542 -12.27989,-5.117759 -15.26705,-11.068102 -1.51619,-3.020213 -2.14757,-5.729879 -2.14598,-9.209837 0.002,-3.503359 0.64286,-6.217196 2.18678,-9.254668 1.93801,-3.812781 5.00331,-6.9025639 8.80739,-8.8777459 12.47553,-6.47763044 27.52341,1.2077718 29.677,15.1569289 0.26807,1.73635 0.18176,5.413635 -0.16463,7.013644 -0.88535,4.089596 -2.72799,7.482085 -5.66114,10.422718 -2.86064,2.867943 -5.97572,4.594165 -9.99366,5.537998 -1.85802,0.436457 -5.63415,0.578118 -7.43871,0.279064 z m 5.87623,-2.998053 c 7.29033,-1.182298 13.10311,-6.973879 14.38663,-14.334162 0.27368,-1.569393 0.26994,-4.343549 -0.008,-5.937451 C 148.94182,13.62831 141.2348,7.4075992 132.5243,7.7650845 c -4.54011,0.1863292 -8.41281,1.8700458 -11.62818,5.0555275 -4.70648,4.662735 -6.39391,11.516301 -4.37169,17.755837 2.00115,6.174501 7.2899,10.786837 13.66199,11.914653 1.52557,0.270017 4.23534,0.273361 5.87623,0.0073 z"
     id="path4914"
     inkscape:connector-curvature="0"
     transform="matrix(3.8946967,0,0,3.8946967,-399.56535,-17.174881)" /><path
     style="fill:#ffffff;fill-opacity:1;stroke-width:0.14168979"
     d="m 142.91612,34.820566 c -0.35918,-0.14134 -10.73337,-8.503778 -10.97176,-8.844131 -0.20145,-0.287613 -0.22771,-1.106629 -0.22771,-7.101725 0,-7.236348 0.0132,-7.382285 0.7006,-7.750175 0.41946,-0.224491 1.31969,-0.167297 1.65612,0.105218 0.60876,0.493119 0.61876,0.607535 0.61876,7.080597 v 6.216816 l 4.71585,3.770186 c 2.59371,2.073603 4.88909,3.943432 5.10083,4.155175 1.07282,1.072818 -0.17384,2.926366 -1.59269,2.368039 z"
     id="path4916"
     inkscape:connector-curvature="0"
     transform="matrix(3.8946967,0,0,3.8946967,-399.56535,-17.174881)" /></g></svg>